<svg width="52" height="66" viewBox="0 0 52 66" fill="none" xmlns="http://www.w3.org/2000/svg">
<path d="M49.1384 33.7741C48.472 32.1889 47.7149 30.3931 46.975 28.1758C45.0395 22.3718 51.2234 16.0409 51.2822 15.9821L47.8178 12.5179C47.4748 12.8609 39.4315 21.039 42.325 29.7242C43.1237 32.1203 43.9224 34.0117 44.6231 35.6777C46.2565 38.9088 47.1051 42.4795 47.1 46.1C46.8129 49.0184 45.6924 51.7927 43.8723 54.092C42.0521 56.3913 39.6091 58.1185 36.8345 59.0678C37.711 55.6322 37.698 52.0298 36.7965 48.6006C35.8951 45.1714 34.1349 42.0283 31.6822 39.4678L29.1244 36.9101L27.6984 40.2347C23.2002 50.7305 17.847 55.312 14.6987 57.223C12.7655 56.04 11.141 54.4146 9.959 52.4808C8.77698 50.547 8.07127 48.36 7.9 46.1C8.06748 43.0156 8.84089 39.9944 10.176 37.209C11.7599 33.8513 12.6522 30.2095 12.8 26.5V22.1439C14.9413 23.0259 17.7 25.3363 17.7 31.4V37.7798L21.9704 33.0391C29.5948 24.5768 28.0047 14.4999 24.9251 7.78445C27.266 8.56477 29.2763 10.1102 30.6322 12.1718C31.9881 14.2335 32.6108 16.6914 32.4 19.15H37.3C37.3 5.58435 26.0815 2 20.15 2H15.25L18.19 5.91755C18.5256 6.3708 25.2019 15.5387 21.5049 24.7531C20.683 22.437 19.1756 20.426 17.183 18.9874C15.1904 17.5489 12.8071 16.751 10.35 16.7H7.9V26.5C7.73252 29.5844 6.95911 32.6056 5.62395 35.391C4.04014 38.7487 3.1478 42.3905 3 46.1C3 55.5276 12.3664 65.7 27.5 65.7C42.6337 65.7 52 55.5276 52 46.1C52.0017 41.8265 51.0227 37.6097 49.1384 33.7741ZM19.7458 59.6387C24.2651 55.8976 27.916 51.2175 30.4449 45.9236C31.7961 48.1031 32.5638 50.5937 32.674 53.1557C32.7843 55.7177 32.2335 58.265 31.0745 60.5526C29.8898 60.7142 28.6957 60.7969 27.5 60.8C24.8705 60.8193 22.2542 60.4274 19.7458 59.6387Z" fill="#161714"/>
<path d="M46.1384 31.7741C45.472 30.1889 44.7149 28.3931 43.975 26.1758C42.0395 20.3718 48.2234 14.0409 48.2822 13.9821L44.8178 10.5179C44.4748 10.8609 36.4315 19.039 39.325 27.7242C40.1237 30.1203 40.9224 32.0117 41.6231 33.6777C43.2565 36.9088 44.1051 40.4795 44.1 44.1C43.8129 47.0184 42.6924 49.7927 40.8723 52.092C39.0521 54.3913 36.6091 56.1185 33.8345 57.0678C34.711 53.6322 34.698 50.0298 33.7965 46.6006C32.8951 43.1714 31.1349 40.0283 28.6822 37.4678L26.1244 34.9101L24.6984 38.2347C20.2002 48.7305 14.847 53.312 11.6987 55.223C9.76553 54.04 8.14102 52.4146 6.959 50.4808C5.77698 48.547 5.07127 46.36 4.9 44.1C5.06748 41.0156 5.84089 37.9944 7.17605 35.209C8.75986 31.8513 9.6522 28.2095 9.8 24.5V20.1439C11.9413 21.0259 14.7 23.3363 14.7 29.4V35.7798L18.9704 31.0391C26.5948 22.5768 25.0047 12.4999 21.9251 5.78445C24.266 6.56477 26.2763 8.11016 27.6322 10.1718C28.9881 12.2335 29.6108 14.6914 29.4 17.15H34.3C34.3 3.58435 23.0815 0 17.15 0H12.25L15.19 3.91755C15.5256 4.3708 22.2019 13.5387 18.5049 22.7531C17.683 20.437 16.1756 18.426 14.183 16.9874C12.1904 15.5489 9.80708 14.751 7.35 14.7H4.9V24.5C4.73252 27.5844 3.95911 30.6056 2.62395 33.391C1.04014 36.7487 0.147796 40.3905 0 44.1C0 53.5276 9.36635 63.7 24.5 63.7C39.6337 63.7 49 53.5276 49 44.1C49.0017 39.8265 48.0227 35.6097 46.1384 31.7741ZM16.7458 57.6387C21.2651 53.8976 24.916 49.2175 27.4449 43.9236C28.7961 46.1031 29.5638 48.5937 29.674 51.1557C29.7843 53.7177 29.2335 56.265 28.0745 58.5526C26.8898 58.7142 25.6957 58.7969 24.5 58.8C21.8705 58.8193 19.2542 58.4274 16.7458 57.6387Z" fill="#E3E0D3"/>
</svg>
