<svg width="52" height="66" viewBox="0 0 52 66" fill="none" xmlns="http://www.w3.org/2000/svg">
<path d="M5.8616 33.7741C6.528 32.1889 7.28505 30.3931 8.02495 28.1758C9.96045 22.3718 3.77665 16.0409 3.71785 15.9821L7.18215 12.5179C7.52515 12.8609 15.5685 21.039 12.675 29.7242C11.8763 32.1203 11.0776 34.0117 10.3769 35.6777C8.74354 38.9088 7.89494 42.4795 7.9 46.1C8.18714 49.0184 9.30758 51.7927 11.1277 54.092C12.9479 56.3913 15.3909 58.1185 18.1655 59.0678C17.289 55.6322 17.302 52.0298 18.2035 48.6006C19.1049 45.1714 20.8651 42.0283 23.3178 39.4678L25.8756 36.9101L27.3016 40.2347C31.7998 50.7305 37.153 55.312 40.3013 57.223C42.2345 56.04 43.859 54.4146 45.041 52.4808C46.223 50.547 46.9287 48.36 47.1 46.1C46.9325 43.0156 46.1591 39.9944 44.824 37.209C43.2401 33.8513 42.3478 30.2095 42.2 26.5V22.1439C40.0587 23.0259 37.3 25.3363 37.3 31.4V37.7798L33.0296 33.0391C25.4052 24.5768 26.9953 14.4999 30.0749 7.78445C27.734 8.56477 25.7237 10.1102 24.3678 12.1718C23.0119 14.2335 22.3892 16.6914 22.6 19.15H17.7C17.7 5.58435 28.9185 2 34.85 2H39.75L36.81 5.91755C36.4744 6.3708 29.7981 15.5387 33.4951 24.7531C34.317 22.437 35.8244 20.426 37.817 18.9874C39.8096 17.5489 42.1929 16.751 44.65 16.7H47.1V26.5C47.2675 29.5844 48.0409 32.6056 49.376 35.391C50.9599 38.7487 51.8522 42.3905 52 46.1C52 55.5276 42.6336 65.7 27.5 65.7C12.3663 65.7 3 55.5276 3 46.1C2.99833 41.8265 3.97732 37.6097 5.8616 33.7741ZM35.2542 59.6387C30.7349 55.8976 27.084 51.2175 24.5551 45.9236C23.2039 48.1031 22.4362 50.5937 22.326 53.1557C22.2157 55.7177 22.7665 58.265 23.9255 60.5526C25.1102 60.7142 26.3043 60.7969 27.5 60.8C30.1295 60.8193 32.7458 60.4274 35.2542 59.6387Z" fill="#161714"/>
<path d="M2.8616 31.7741C3.528 30.1889 4.28505 28.3931 5.02495 26.1758C6.96045 20.3718 0.776647 14.0409 0.717847 13.9821L4.18215 10.5179C4.52515 10.8609 12.5685 19.039 9.67505 27.7242C8.87635 30.1203 8.07765 32.0117 7.37695 33.6777C5.74354 36.9088 4.89494 40.4795 4.9 44.1C5.18714 47.0184 6.30758 49.7927 8.12772 52.092C9.94786 54.3913 12.3909 56.1185 15.1655 57.0678C14.289 53.6322 14.302 50.0298 15.2035 46.6006C16.1049 43.1714 17.8651 40.0283 20.3178 37.4678L22.8756 34.9101L24.3016 38.2347C28.7998 48.7305 34.153 53.312 37.3013 55.223C39.2345 54.04 40.859 52.4146 42.041 50.4808C43.223 48.547 43.9287 46.36 44.1 44.1C43.9325 41.0156 43.1591 37.9944 41.824 35.209C40.2401 31.8513 39.3478 28.2095 39.2 24.5V20.1439C37.0587 21.0259 34.3 23.3363 34.3 29.4V35.7798L30.0296 31.0391C22.4052 22.5768 23.9953 12.4999 27.0749 5.78445C24.734 6.56477 22.7237 8.11016 21.3678 10.1718C20.0119 12.2335 19.3892 14.6914 19.6 17.15H14.7C14.7 3.58435 25.9185 0 31.85 0H36.75L33.81 3.91755C33.4744 4.3708 26.7981 13.5387 30.4951 22.7531C31.317 20.437 32.8244 18.426 34.817 16.9874C36.8096 15.5489 39.1929 14.751 41.65 14.7H44.1V24.5C44.2675 27.5844 45.0409 30.6056 46.376 33.391C47.9599 36.7487 48.8522 40.3905 49 44.1C49 53.5276 39.6336 63.7 24.5 63.7C9.36635 63.7 -9.53674e-07 53.5276 -9.53674e-07 44.1C-0.00166952 39.8265 0.977318 35.6097 2.8616 31.7741ZM32.2542 57.6387C27.7349 53.8976 24.084 49.2175 21.5551 43.9236C20.2039 46.1031 19.4362 48.5937 19.326 51.1557C19.2157 53.7177 19.7665 56.265 20.9255 58.5526C22.1102 58.7142 23.3043 58.7969 24.5 58.8C27.1295 58.8193 29.7458 58.4274 32.2542 57.6387Z" fill="#72E1C7"/>
</svg>
