<svg width="16" height="16" viewBox="0 0 16 16" fill="none" xmlns="http://www.w3.org/2000/svg">
<g clip-path="url(#clip0_848_5)">
<path d="M9.89356 0.574219C11.1665 2.12647 10.7574 3.28303 10.0606 4.40822C10.085 3.06769 8.89713 2.59344 7.458 3.03222C9.69103 3.03672 9.4425 4.71181 8.93456 6.19144C8.67231 6.69613 8.48831 7.22981 8.48831 7.81938C8.48831 8.76859 8.92163 9.47509 9.63769 9.91797C9.32909 9.49016 9.20653 8.94284 9.34569 8.29391C9.66388 6.81037 10.9751 6.03463 11.5547 4.79003C11.8545 5.34266 12.3122 5.738 12.7587 5.73928C13.3662 5.74103 13.7011 5.03378 13.5439 4.15141C14.8378 6.01328 14.4289 8.89759 13.1787 10.21C15.2347 9.27125 15.969 5.93312 14.58 3.43553C14.5986 3.86694 14.5405 4.29444 14.3867 4.70803C14.0627 3.46997 13.4286 1.74772 11.5498 0.938469L11.5439 0.936594C11.0482 0.763656 10.4989 0.639688 9.89356 0.574219ZM11.2031 7.45406C10.4821 7.45406 9.90234 8.03353 9.90234 8.75781C9.90234 9.48209 10.482 10.0625 11.2031 10.0625C11.9242 10.0625 12.5029 9.48209 12.5029 8.75781C12.5029 8.03353 11.9242 7.45406 11.2031 7.45406ZM8.44725 9.82125L0.554688 14.6455V15.3936H2.42875L9.85744 10.7686C9.32962 10.607 8.84009 10.2769 8.44728 9.82131L8.44725 9.82125Z" fill="black"/>
</g>
<defs>
<clipPath id="clip0_848_5">
<rect width="16" height="16" fill="white"/>
</clipPath>
</defs>
</svg>
